# xmcd
#
# Track frame offsets: 
#        150
#        15237
#        30145
#        42231
#        53954
#        72583
#        93555
#        109535
#        126524
#        140324
#        160055
#        180141
#        197109
#        218350
#        233401
#
# Disc length: 3285 seconds
#
# Revision: 1
# Processed by: cddbd v1.5.2PL0 Copyright (c) Steve Scherf et al.
# Submitted via: ExactAudioCopyFreeDBPlugin 1.0
#
DISCID=b60cd30f
DTITLE=Slam and Howie - A Fistful Of Songs
DYEAR=1900
DGENRE=Country
TTITLE0=Bedside Radio
TTITLE1=Helldorado
TTITLE2=Eastbound And Down
TTITLE3=Bonanza
TTITLE4=Goin' South
TTITLE5=Pay Me My Money Down
TTITLE6=Black
TTITLE7=Shotgun Ballad
TTITLE8=Hotel Yorba
TTITLE9=Six String Love
TTITLE10=Highway To La Grange
TTITLE11=Hillbilly Boys
TTITLE12=Tough Guy
TTITLE13=Drinkin' And Ramblin'
TTITLE14=Bonus
EXTD=
EXTT0=
EXTT1=
EXTT2=
EXTT3=
EXTT4=
EXTT5=
EXTT6=
EXTT7=
EXTT8=
EXTT9=
EXTT10=
EXTT11=
EXTT12=
EXTT13=
EXTT14=
PLAYORDER=
